# xmcd
#
# Track frame offsets:
#	150
#	15627
#	35889
#	48991
#	61959
#	80930
#	97488
#	110569
#	126395
#	146499
#	159997
#	176423
#
# Disc length: 2548 seconds
#
# Revision: 0
# Processed by: cddbd v1.4PL0 Copyright (c) Steve Scherf et al.
# Submitted via: dBpowerAMP V4.0
#
DISCID=ae09f20c
DTITLE=Rex Robards - Pictures of Us
DYEAR=1900
DGENRE=
TTITLE0=California
TTITLE1=Pictures of Us
TTITLE2=It's All Good
TTITLE3=Honky-Tonk Heroes
TTITLE4=Your Auburn Hair
TTITLE5=What Should I Do
TTITLE6=Lost In Love
TTITLE7=Rail Running Man
TTITLE8=There's A Way
TTITLE9=A Cowboy's Wife
TTITLE10=Lucky Day
TTITLE11=For the Last Time
EXTD=
EXTT0=
EXTT1=
EXTT2=
EXTT3=
EXTT4=
EXTT5=
EXTT6=
EXTT7=
EXTT8=
EXTT9=
EXTT10=
EXTT11=
PLAYORDER=
